<svg width="300" height="250" viewBox="0 0 300 250" fill="none" xmlns="http://www.w3.org/2000/svg">
<rect width="300" height="250" fill="white"/>
<path d="M104.992 180H102.912L110.992 168.8H113.696L114.592 180H110.944C110.912 178.736 110.896 177.568 110.848 176.512C109.632 176.496 108.336 176.496 107.136 176.512C106.384 177.68 105.696 178.8 104.992 180ZM116.4 165.456C115.968 167.072 115.104 167.936 113.92 167.936C112.624 167.936 112.128 166.864 111.344 166.864C110.912 166.864 110.576 167.2 110.352 167.792H109.408C109.856 166.16 110.704 165.328 111.872 165.328C113.168 165.328 113.712 166.384 114.496 166.384C114.928 166.384 115.248 166.08 115.488 165.456H116.4ZM107.952 175.264C108.88 175.28 109.824 175.28 110.784 175.264L110.512 171.472C109.536 172.88 108.704 174.128 107.952 175.264ZM115.959 177.376C116.711 178.416 117.751 179.104 118.567 179.104C119.143 179.104 119.479 178.784 119.479 178.368C119.479 178.08 119.335 177.872 118.791 177.52L118.119 177.104C117.143 176.48 116.679 175.728 116.679 174.8C116.679 173.04 118.295 171.744 120.487 171.744C121.383 171.744 122.439 171.984 123.159 172.352L122.615 174.352C122.055 173.504 121.079 172.864 120.343 172.864C119.863 172.864 119.527 173.12 119.527 173.504C119.527 173.792 119.735 174.048 120.199 174.368L121.063 174.96C121.879 175.504 122.263 176.144 122.263 176.96C122.263 178.784 120.487 180.256 118.279 180.256C117.239 180.256 116.167 179.936 115.399 179.392L115.959 177.376ZM123.224 177.376C123.976 178.416 125.016 179.104 125.832 179.104C126.408 179.104 126.744 178.784 126.744 178.368C126.744 178.08 126.6 177.872 126.056 177.52L125.384 177.104C124.408 176.48 123.944 175.728 123.944 174.8C123.944 173.04 125.56 171.744 127.752 171.744C128.648 171.744 129.704 171.984 130.424 172.352L129.88 174.352C129.32 173.504 128.344 172.864 127.608 172.864C127.128 172.864 126.792 173.12 126.792 173.504C126.792 173.792 127 174.048 127.464 174.368L128.328 174.96C129.144 175.504 129.528 176.144 129.528 176.96C129.528 178.784 127.752 180.256 125.544 180.256C124.504 180.256 123.432 179.936 122.664 179.392L123.224 177.376ZM134.188 180.256C131.996 180.256 130.524 178.928 130.524 176.88C130.524 174.176 133.148 171.744 136.076 171.744C138.267 171.744 139.772 173.088 139.772 175.12C139.772 177.824 137.132 180.256 134.188 180.256ZM134.22 179.104C135.116 179.104 136.572 175.632 136.572 173.776C136.572 173.168 136.396 172.896 136.076 172.896C135.18 172.896 133.724 176.336 133.724 178.192C133.724 178.848 133.916 179.104 134.22 179.104ZM143.453 180.256C141.629 180.256 140.349 179.008 140.349 177.28C140.349 174.368 143.213 171.744 146.429 171.744C147.165 171.744 147.933 171.92 148.637 172.272L147.997 174.432C147.389 173.344 146.957 172.928 146.365 172.928C145.197 172.928 143.981 174.736 143.981 176.496C143.981 177.552 144.477 178.176 145.309 178.176C145.885 178.176 146.557 177.888 147.293 177.328L146.973 178.576C146.205 179.6 144.813 180.256 143.453 180.256ZM147.582 180C148.046 178.544 148.366 177.488 148.782 176L148.83 175.84C149.214 174.528 149.502 173.472 149.87 172H153.31L152.158 176C151.742 177.488 151.422 178.56 151.07 180H147.582ZM152.046 171.376C151.15 171.376 150.51 170.752 150.51 169.872C150.51 168.816 151.438 167.904 152.526 167.904C153.438 167.904 154.078 168.528 154.078 169.408C154.078 170.464 153.134 171.376 152.046 171.376ZM154.779 180.256C153.579 180.256 152.811 179.456 152.811 178.144C152.811 175.344 156.203 171.984 158.923 171.984C159.451 171.984 159.867 172.112 160.203 172.384L160.539 171.408H163.563C163.099 172.816 162.747 173.968 162.299 175.36L161.691 177.296C161.467 178.016 161.707 178.464 162.299 178.464C162.459 178.464 162.619 178.432 162.747 178.368L162.523 179.104C162.011 179.776 161.099 180.24 160.203 180.24C158.779 180.24 158.155 179.104 158.779 177.616L159.387 176.128H159.211C157.835 178.864 156.379 180.256 154.779 180.256ZM156.507 178.064C157.451 178.064 159.611 174.816 159.611 173.568C159.611 173.232 159.467 173.072 159.227 173.072C158.251 173.072 156.107 176.304 156.107 177.536C156.107 177.904 156.267 178.064 156.507 178.064ZM166.373 180.24C164.629 180.24 163.765 178.928 164.277 177.152L165.381 173.264L164.117 173.28L164.485 172L165.813 172.016L166.389 169.952L169.893 169.024L169.029 172.016L170.965 172L170.597 173.28L168.709 173.264L167.525 177.392C167.317 178.112 167.557 178.544 168.165 178.544C168.485 178.544 168.789 178.448 169.205 178.208L168.933 179.232C168.341 179.824 167.317 180.24 166.373 180.24ZM169.707 180C170.171 178.544 170.491 177.488 170.907 176L170.955 175.84C171.339 174.528 171.627 173.472 171.995 172H175.435L174.283 176C173.867 177.488 173.547 178.56 173.195 180H169.707ZM174.171 171.376C173.275 171.376 172.635 170.752 172.635 169.872C172.635 168.816 173.563 167.904 174.651 167.904C175.563 167.904 176.203 168.528 176.203 169.408C176.203 170.464 175.259 171.376 174.171 171.376ZM178.984 180.256C176.792 180.256 175.32 178.928 175.32 176.88C175.32 174.176 177.944 171.744 180.872 171.744C183.064 171.744 184.568 173.088 184.568 175.12C184.568 177.824 181.928 180.256 178.984 180.256ZM179.016 179.104C179.912 179.104 181.368 175.632 181.368 173.776C181.368 173.168 181.192 172.896 180.872 172.896C179.976 172.896 178.52 176.336 178.52 178.192C178.52 178.848 178.712 179.104 179.016 179.104ZM184.395 180C184.875 178.528 185.131 177.648 185.595 176.128L185.739 175.648C186.155 174.256 186.283 173.712 186.731 172H189.771C189.403 173.104 188.971 174.208 188.363 175.872H188.571C189.755 173.136 191.195 171.744 192.907 171.744C194.091 171.744 194.779 172.384 194.779 173.504C194.779 173.888 194.667 174.48 194.475 175.104L194.043 176.416C193.419 178.384 193.259 178.928 193.003 180H189.419C189.947 178.512 190.251 177.568 190.571 176.672L191.115 175.2C191.259 174.816 191.339 174.48 191.339 174.256C191.339 173.968 191.195 173.808 190.923 173.808C190.299 173.808 189.467 175.024 188.715 177.2C188.427 178.016 188.155 178.96 187.899 180H184.395Z" fill="black" fill-opacity="0.5"/>
<g filter="url(#filter0_dg_1_70)">
<path d="M93.48 149.536C80.04 149.536 71.208 141.184 71.208 128.704C71.208 115.36 81.672 104.32 94.44 104.32C104.04 104.32 109.512 110.656 108.84 120.448H109.416C111.912 115.744 113.256 110.464 113.256 105.472C113.256 101.44 112.296 97.888 110.76 95.104C103.656 97.504 97.032 99.808 90.792 102.112L92.808 95.008L106.92 90.496C104.136 88.288 100.776 87.136 96.84 87.136C93.672 87.136 89.736 88 87.336 89.248L89.256 82.528C93.864 80.416 98.568 79.36 104.04 79.36C111.816 79.36 118.344 81.472 123.048 85.216C129.192 83.104 133.896 81.376 139.08 79.36L137.064 86.464L127.272 89.632C130.536 94.144 132.264 100 132.264 107.008C132.264 129.664 114.216 149.536 93.48 149.536ZM93 142.624C97.896 142.624 104.904 129.184 104.904 120.16C104.904 116.704 103.656 114.784 101.64 114.784C96.648 114.784 89.736 128.032 89.736 137.056C89.736 140.704 90.984 142.624 93 142.624ZM133.065 132.256C137.577 138.496 143.817 142.624 148.713 142.624C152.169 142.624 154.185 140.704 154.185 138.208C154.185 136.48 153.321 135.232 150.057 133.12L146.025 130.624C140.169 126.88 137.385 122.368 137.385 116.8C137.385 106.24 147.081 98.464 160.233 98.464C165.609 98.464 171.945 99.904 176.265 102.112L173.001 114.112C169.641 109.024 163.785 105.184 159.369 105.184C156.489 105.184 154.473 106.72 154.473 109.024C154.473 110.752 155.721 112.288 158.505 114.208L163.689 117.76C168.585 121.024 170.889 124.864 170.889 129.76C170.889 140.704 160.233 149.536 146.985 149.536C140.745 149.536 134.313 147.616 129.705 144.352L133.065 132.256ZM187.559 148L181.607 100H203.207C203.399 108.832 203.783 115.936 204.455 124.288L204.935 131.2C212.615 119.584 218.183 110.08 223.655 100H235.367L200.903 148H187.559Z" fill="black"/>
</g>
<defs>
<filter id="filter0_dg_1_70" x="67.208" y="79.01" width="172.159" height="78.526" filterUnits="userSpaceOnUse" color-interpolation-filters="sRGB">
<feFlood flood-opacity="0" result="BackgroundImageFix"/>
<feColorMatrix in="SourceAlpha" type="matrix" values="0 0 0 0 0 0 0 0 0 0 0 0 0 0 0 0 0 0 127 0" result="hardAlpha"/>
<feOffset dy="4"/>
<feGaussianBlur stdDeviation="2"/>
<feComposite in2="hardAlpha" operator="out"/>
<feColorMatrix type="matrix" values="0 0 0 0 0 0 0 0 0 0 0 0 0 0 0 0 0 0 0.12 0"/>
<feBlend mode="normal" in2="BackgroundImageFix" result="effect1_dropShadow_1_70"/>
<feBlend mode="normal" in="SourceGraphic" in2="effect1_dropShadow_1_70" result="shape"/>
<feTurbulence type="fractalNoise" baseFrequency="0.038022816181182861 0.038022816181182861" numOctaves="3" seed="2780" />
<feDisplacementMap in="shape" scale="0.69999998807907104" xChannelSelector="R" yChannelSelector="G" result="displacedImage" width="100%" height="100%" />
<feMerge result="effect2_texture_1_70">
<feMergeNode in="displacedImage"/>
</feMerge>
</filter>
</defs>
</svg>
