<svg width="1137" height="64" viewBox="0 0 1137 64" fill="none" xmlns="http://www.w3.org/2000/svg">
<g opacity="0.56" filter="url(#filter0_f_517_17116)">
<rect x="20" y="29" width="6" height="6" fill="white" fill-opacity="0.15"/>
<rect x="62" y="26" width="6" height="12" fill="white" fill-opacity="0.35"/>
<rect x="104" y="23" width="6" height="18" fill="white" fill-opacity="0.65"/>
<rect x="146" y="20" width="6" height="24" fill="white"/>
<rect x="188" y="20" width="6" height="24" fill="white"/>
<rect x="230" y="20" width="6" height="24" fill="white"/>
<rect x="272" y="20" width="6" height="24" fill="white"/>
</g>
<rect x="20" y="29" width="6" height="6" fill="white" fill-opacity="0.15"/>
<rect x="62" y="26" width="6" height="12" fill="white" fill-opacity="0.35"/>
<rect x="104" y="23" width="6" height="18" fill="white" fill-opacity="0.65"/>
<rect x="146" y="20" width="6" height="24" fill="white"/>
<rect x="188" y="20" width="6" height="24" fill="white"/>
<rect x="230" y="20" width="6" height="24" fill="white"/>
<rect x="272" y="20" width="6" height="24" fill="white"/>
<g filter="url(#filter1_f_517_17116)">
<rect x="1117" y="35" width="6" height="6" transform="rotate(-180 1117 35)" fill="white" fill-opacity="0.15"/>
<rect x="1075" y="38" width="6" height="12" transform="rotate(-180 1075 38)" fill="white" fill-opacity="0.35"/>
<rect x="1033" y="41" width="6" height="18" transform="rotate(-180 1033 41)" fill="white" fill-opacity="0.65"/>
<rect x="991" y="44" width="6" height="24" transform="rotate(-180 991 44)" fill="white"/>
<rect x="949" y="44" width="6" height="24" transform="rotate(-180 949 44)" fill="white"/>
<rect x="907" y="44" width="6" height="24" transform="rotate(-180 907 44)" fill="white"/>
<rect x="865" y="44" width="6" height="24" transform="rotate(-180 865 44)" fill="white"/>
</g>
<rect x="1117" y="35" width="6" height="6" transform="rotate(-180 1117 35)" fill="white" fill-opacity="0.15"/>
<rect x="1075" y="38" width="6" height="12" transform="rotate(-180 1075 38)" fill="white" fill-opacity="0.35"/>
<rect x="1033" y="41" width="6" height="18" transform="rotate(-180 1033 41)" fill="white" fill-opacity="0.65"/>
<rect x="991" y="44" width="6" height="24" transform="rotate(-180 991 44)" fill="white"/>
<rect x="949" y="44" width="6" height="24" transform="rotate(-180 949 44)" fill="white"/>
<rect x="907" y="44" width="6" height="24" transform="rotate(-180 907 44)" fill="white"/>
<rect x="865" y="44" width="6" height="24" transform="rotate(-180 865 44)" fill="white"/>
<defs>
<filter id="filter0_f_517_17116" x="0.6" y="0.6" width="296.8" height="62.8" filterUnits="userSpaceOnUse" color-interpolation-filters="sRGB">
<feFlood flood-opacity="0" result="BackgroundImageFix"/>
<feBlend mode="normal" in="SourceGraphic" in2="BackgroundImageFix" result="shape"/>
<feGaussianBlur stdDeviation="9.7" result="effect1_foregroundBlur_517_17116"/>
</filter>
<filter id="filter1_f_517_17116" x="839.6" y="0.6" width="296.8" height="62.8" filterUnits="userSpaceOnUse" color-interpolation-filters="sRGB">
<feFlood flood-opacity="0" result="BackgroundImageFix"/>
<feBlend mode="normal" in="SourceGraphic" in2="BackgroundImageFix" result="shape"/>
<feGaussianBlur stdDeviation="9.7" result="effect1_foregroundBlur_517_17116"/>
</filter>
</defs>
</svg>
